<svg xmlns="http://www.w3.org/2000/svg" fill="none" viewBox="0 0 181 70" height="70" width="181">
<path fill="#151513" d="M6.17532 31.4304L6.09961 31.4742L5.84001 31.6168C3.30893 32.9545 1.56745 35.4875 1.03744 38.7332C0.345179 43.3277 0.323546 47.4944 0.961725 51.1459C1.61072 54.8631 3.03851 58.7886 5.21265 62.8238C6.83513 65.7186 9.31213 67.506 12.2002 67.9007C41.0696 70.7297 69.9824 70.1157 91.6156 66.245L99.1764 64.8414C121.718 60.8172 149.344 51.409 174.925 39.0512C177.77 37.5599 179.49 35.0599 180.02 31.7593C180.679 27.5487 180.658 23.7547 179.966 19.4454L179.901 18.9958C179.079 14.6755 177.813 11.1118 175.812 7.38365C174.189 4.49979 171.723 2.7015 168.835 2.30675C140.388 -0.456486 111.204 0.278183 88.641 4.31339C88.6627 4.31339 81.1019 5.60728 81.1019 5.60728C59.4687 9.47801 32.1676 18.8862 6.17532 31.4304Z"></path>
<path fill="#FBFBFA" d="M48.7819 32.5709C49.2686 32.231 49.7013 31.8911 49.8527 31.6279C49.9933 31.3648 50.0041 30.981 49.9392 30.6191L49.7229 29.2704C49.4309 27.5708 48.9117 27.0664 47.4731 27.6256C46.9863 27.834 45.7208 28.4919 44.2605 29.4349C41.0264 31.4854 29.0308 38.8979 22.3353 43.0098C21.7728 43.3278 21.351 43.602 21.113 44.1831C20.6263 45.3564 20.94 47.1657 21.0265 47.6701C21.1347 48.2731 21.7079 50.3675 22.411 50.8719C22.9518 51.1789 23.2763 51.2228 23.7847 51.3324C31.4537 52.8676 45.234 55.6747 48.9658 56.4971C50.6531 56.8589 52.0593 57.0563 52.5893 57.0563C54.1253 57.1001 54.4498 56.4422 54.1469 54.7426L53.8981 53.4049C53.8332 53.043 53.7034 52.6812 53.4763 52.4838C53.2491 52.2864 52.7191 52.1219 52.1458 51.9684C47.8625 50.9816 30.5235 47.6262 25.9805 46.6941V46.6284C29.9177 44.1721 45.061 34.9504 48.7602 32.56"></path>
<path fill="#FBFBFA" d="M83.8497 20.3336C83.8064 20.0924 83.6658 19.2262 83.6225 18.9959C83.3738 17.5814 82.4868 16.9783 81.2753 17.3182C78.2251 17.9871 75.8887 18.5463 72.4165 19.6428C68.9877 20.7174 67.1921 21.474 63.9147 22.6802C63.309 22.9214 62.011 23.4258 61.3187 23.7987C59.4258 24.7746 58.4848 25.268 57.3598 26.0904C56.3323 26.858 55.2398 27.7132 54.6665 28.7111C53.3577 30.926 53.2712 32.1651 53.7147 34.6871L56.0943 48.3498C56.5378 50.8937 57.0245 52.0122 59.004 53.646C59.8693 54.3697 61.1889 54.8083 62.4112 55.1592C63.7416 55.5539 64.8017 55.6855 66.9001 55.9597C67.6789 56.0583 69.0742 56.1022 69.7232 56.1022C73.217 56.1022 75.164 56.1899 78.7443 56.0255C82.3678 55.839 84.7583 55.5539 87.8518 55.1263C89.0957 55.0166 89.7339 54.1504 89.4851 52.7249C89.4419 52.4837 89.2796 51.6284 89.2472 51.3981C89.0092 50.0275 88.3169 49.534 87.073 49.6656C83.7848 50.0165 81.1131 50.499 77.9438 50.7292C74.8178 50.9595 72.4165 51.1459 68.6632 51.3543C66.7919 51.4639 65.0829 51.2336 63.7308 50.7292C62.3679 50.2358 61.5567 49.1283 61.3944 48.1524L58.766 33.0533C58.5929 32.0774 58.9823 30.7616 60.0964 29.8186C61.1997 28.8865 62.7249 28.0751 64.5204 27.5268C68.1224 26.4193 70.4371 25.7505 73.4549 24.8842C76.516 24.018 79.1986 23.5465 82.4003 22.7241C83.6117 22.417 84.0985 21.7153 83.8605 20.3446"></path>
<path fill="#FBFBFA" d="M78.4414 40.2683C79.6853 40.049 80.0423 39.2376 79.9125 37.7573L79.6204 36.0577C79.2418 34.6322 78.6361 33.9852 77.3922 34.2155C75.3803 34.6761 64.1743 37.0445 63.4496 37.2309C62.13 37.5489 62.0975 37.8121 62.0326 38.2288C61.9894 38.5468 62.0759 39.2705 62.2273 40.1258C62.3788 41.0249 62.5302 41.7377 62.6925 42.0447C62.8871 42.4175 63.3198 42.4504 64.3258 42.3298C65.0937 42.2421 76.3863 40.5424 78.4306 40.2683"></path>
<path fill="#FBFBFA" d="M19.1123 40.2027V40.1698C19.3178 38.9965 18.8203 38.4702 17.3492 38.7333L15.7592 39.0184C14.2881 39.2816 13.3146 39.9614 13.001 41.2663C12.3844 43.9966 12.3844 46.6173 12.8063 49.0078C13.2281 51.442 14.1042 53.8982 15.6078 56.2448C16.3433 57.3633 17.4898 57.6484 18.9609 57.3852L20.5509 57.1001C22.022 56.8369 22.314 56.168 21.7299 55.1483C18.485 50.1481 17.955 45.2357 19.1123 40.2027Z"></path>
<path fill="#FBFBFA" d="M158.863 29.6651C159.35 29.8954 160.334 30.3011 160.507 29.5445C160.648 28.766 160.615 28.1848 160.583 27.2528C160.561 26.3207 160.496 24.8185 160.28 24.336C160.15 23.9741 159.674 23.7877 159.317 23.6781C155.456 22.2965 151.8 21.0793 147.722 19.7416C142.605 18.0639 131.67 14.3357 131.399 14.259C130.329 13.9519 129.55 13.8423 128.814 13.9848C128.565 14.0287 128.447 14.0506 128.198 14.1054C128.014 14.1493 127.668 14.259 127.386 14.5002C127.04 14.7963 126.846 15.0265 126.705 15.3664C126.575 15.6954 126.51 16.0134 126.575 16.3752L126.748 17.3512C127.419 21.2219 128.284 25.0378 128.955 28.9195C129.604 32.6696 130.091 36.5732 130.761 40.433C130.956 41.5295 131.54 42.0448 132.762 41.8146C133.26 41.7159 133.757 41.6282 134.255 41.5404C135.477 41.3102 136.115 40.5755 136.051 39.4571C135.726 36.1455 135.283 32.8669 134.861 29.698C134.298 26.4413 133.747 23.2943 133.054 20.0596C138.062 21.7482 143.038 23.4588 148.057 25.29C151.334 26.4523 155.672 28.2944 158.874 29.6651"></path>
<path fill="#FBFBFA" d="M173.357 8.75443C172.21 6.69297 170.491 5.43197 168.511 5.15784C140.388 2.43846 111.508 3.16217 89.193 7.14254L81.6322 8.4474C60.2802 12.2633 33.2604 21.5947 7.48445 34.0293H7.452L7.28975 34.1389C5.49419 35.0819 4.326 36.8254 3.9366 39.1829C3.29842 43.4374 3.26597 47.2643 3.85007 50.6087C4.44498 54.0079 5.77542 57.6374 7.79813 61.3985C8.94469 63.449 10.6537 64.71 12.6331 64.9731C41.1889 67.7693 69.788 67.1662 91.1832 63.3503C91.1941 63.3503 98.7224 61.9577 98.7224 61.9577C121.048 57.9664 148.403 48.6569 173.757 36.4087C175.693 35.389 176.872 33.6345 177.262 31.277C177.857 27.3953 177.846 23.8864 177.208 19.8951L177.132 19.4894C176.386 15.52 175.217 12.2194 173.357 8.77636M174.796 30.7287C174.384 32.867 173.93 33.2288 171.583 34.5117C146.196 46.9573 120.723 55.5211 98.3546 59.5124L90.7073 60.9379C69.3013 64.7648 43.958 65.4775 15.294 62.6704C12.6764 62.3744 11.2811 62.2976 10.0047 60.3458C8.30651 56.7273 6.90035 53.4048 6.3487 50.2578C5.81869 47.1875 5.67808 43.58 6.40279 39.5996C6.75974 37.6039 7.87384 36.6171 8.9555 36.1236C35.1533 23.6013 60.648 14.884 82.0216 11.0571L89.7014 9.7413C112.059 5.74996 139.047 4.9166 167.256 7.83335C169.203 7.92107 170.35 8.37065 171.15 9.68647C173.043 12.7896 173.93 16.0024 174.633 19.7197L174.698 20.0815C175.282 23.8097 175.509 26.9786 174.785 30.7287"></path>
<path fill="#FBFBFA" d="M118.917 15.1143C115.672 14.6976 112.276 14.5331 109.074 14.5002C105.905 14.4454 103.806 14.4783 100.637 14.555C100.01 14.5331 98.1709 14.577 97.4245 14.7085C96.0724 14.9498 94.8718 15.2897 93.8226 15.8489C92.7734 16.4081 91.8864 17.1976 91.1617 18.0858C89.7123 19.9609 89.0957 22.3074 89.5825 25.0816L93.033 44.9287C93.5197 47.7029 94.8934 49.7095 96.8837 50.9705C97.868 51.5407 98.9713 51.9684 100.139 52.1328C101.308 52.2973 102.552 52.2096 103.904 51.9684C104.639 51.8368 106.381 51.2337 106.965 51.0034C109.961 49.9727 111.94 49.2819 114.904 48.1196C117.889 46.9682 121.037 45.6414 123.947 44.1282C125.104 43.5471 125.137 42.6808 124.942 41.5953L124.834 40.9922C124.628 39.786 124.055 39.3913 122.865 39.8628C120.01 40.9922 112.514 43.6677 105.267 45.8169C103.46 46.3651 101.848 46.5406 100.496 46.2116C99.1552 45.8607 98.4521 45.2028 98.1817 43.887C97.7598 41.8475 95.0881 26.2878 94.7853 24.2044C94.5906 22.8886 95.034 22.0114 96.1806 21.2219C97.338 20.4433 98.9172 20.0486 100.788 19.928C108.317 19.4455 116.278 19.4345 119.339 19.5113C120.604 19.5442 121.015 18.974 120.799 17.7678L120.691 17.1647C120.507 16.0792 120.183 15.2787 118.895 15.1252"></path>
<path fill="#FBFBFA" d="M163.038 12.702L161.448 12.9871C160.226 13.2064 159.825 13.9191 160.388 14.9279C161.415 16.6714 162.097 18.7877 162.54 20.9917C162.681 21.6496 162.8 22.2856 162.886 23.0093C163.254 25.7287 163.319 28.459 163.254 30.6849C163.2 30.97 163.222 31.2442 163.395 31.4525C163.828 31.7486 164.087 31.7157 164.66 31.617C165.904 31.4087 166.889 31.1784 167.57 30.6849C168.36 30.049 168.706 29.0292 168.846 27.7572C169.063 25.3558 169.149 23.7001 168.641 20.7724C168.154 17.9653 167.213 16.0793 166.077 13.9191C165.482 12.7678 164.422 12.4607 163.06 12.702"></path>
<path fill="#FBFBFA" d="M114.936 33.3604C116.169 33.1411 116.526 32.3297 116.451 30.9919L116.288 30.0818C115.91 28.7879 115.304 28.1519 114.071 28.3712C112.146 28.7111 104.596 29.7967 99.7823 30.4765C99.7823 30.4765 98.8629 30.5643 98.7763 31.3099C98.6898 31.8911 98.8953 33.0534 99.0143 33.788C99.1225 34.424 99.3064 35.3122 99.6849 35.9701C100.009 36.5293 100.777 36.3758 100.777 36.3758C105.526 35.3232 113 33.7113 114.936 33.3604Z"></path>
</svg>
